<svg width="344" height="344" viewBox="-250 -250 844 844" fill="none" xmlns="http://www.w3.org/2000/svg">
<path d="M172 0C144.452 0 122.12 22.332 122.12 49.88V51.579L120.919 50.3777C101.439 30.8983 69.857 30.8983 50.3777 50.3777C30.8983 69.857 30.8983 101.439 50.3777 120.919L51.579 122.12H49.88C22.332 122.12 0 144.452 0 172C-3.38448e-06 199.548 22.332 221.88 49.88 221.88H51.579L50.3777 223.081C30.8983 242.561 30.8983 274.143 50.3777 293.622C69.857 313.102 101.439 313.102 120.919 293.622L122.12 292.421V294.12C122.12 321.668 144.452 344 172 344C199.548 344 221.88 321.668 221.88 294.12V292.421L223.081 293.622C242.561 313.102 274.143 313.102 293.622 293.622C313.102 274.143 313.102 242.561 293.622 223.081L292.421 221.88H294.12C321.668 221.88 344 199.548 344 172C344 144.452 321.668 122.12 294.12 122.12H292.421L293.622 120.919C313.102 101.439 313.102 69.8569 293.622 50.3776C274.143 30.8982 242.561 30.8982 223.081 50.3776L221.88 51.579V49.88C221.88 22.332 199.548 0 172 0Z" fill="#FEF5EB" stroke="#C2AE4C" stroke-width="4.5"/>
</svg>
